<?xml version="1.0" encoding="UTF-8" standalone="no"?>
<!-- Created with Inkscape (http://www.inkscape.org/) -->

<svg
   version="1.1"
   id="svg1"
   width="1402"
   height="1122"
   viewBox="0 0 1402 1122"
   sodipodi:docname="main.svg"
   inkscape:version="1.4.4 (dcaf3e7, 2026-05-05)"
   xmlns:inkscape="http://www.inkscape.org/namespaces/inkscape"
   xmlns:sodipodi="http://sodipodi.sourceforge.net/DTD/sodipodi-0.dtd"
   xmlns="http://www.w3.org/2000/svg"
   xmlns:svg="http://www.w3.org/2000/svg">
  <defs
     id="defs1" />
  <sodipodi:namedview
     id="namedview1"
     pagecolor="#505050"
     bordercolor="#eeeeee"
     borderopacity="1"
     inkscape:showpageshadow="0"
     inkscape:pageopacity="0"
     inkscape:pagecheckerboard="0"
     inkscape:deskcolor="#505050"
     inkscape:zoom="1.9486401"
     inkscape:cx="381.80473"
     inkscape:cy="1001.4677"
     inkscape:window-width="1920"
     inkscape:window-height="991"
     inkscape:window-x="-9"
     inkscape:window-y="-9"
     inkscape:window-maximized="1"
     inkscape:current-layer="svg1" />
  <path
     style="display:inline;opacity:1;fill:#d7d5df;fill-opacity:1;stroke:#c2c6d7;stroke-width:0.667;stroke-linecap:round;stroke-linejoin:bevel;stroke-dasharray:0.02501245, 0.02501245;stroke-opacity:1;paint-order:stroke fill markers;stroke-dashoffset:0"
     d="m 46.629043,868.7154 c -1.296757,6.17253 -4.923366,10.54131 -11.521184,12.6098 l -0.272154,8.34605 c 5.677282,3.60083 4.739631,7.09323 0,10.52329 l 0.09072,8.6182 c 5.95751,2.98437 3.380205,5.5032 0.09072,7.98319 l -0.09072,5.89667 c 6.793146,5.01411 1.438318,6.29038 0.09072,8.79964 0,0 -0.181436,0.9979 -0.09072,8.52749 6.921462,4.2118 0.09072,8.52749 0.09072,8.52749 l -0.272154,9.61611 c 8.14952,3.21528 10.480632,8.35106 11.044329,14.30989 0.649516,6.86602 -1.701447,14.52752 -10.953609,16.71566 l -0.272154,9.16251 c 5.508963,0.7785 4.360359,8.78111 0.128295,9.87081 l -0.03757,8.6357 c 2.505474,0.6122 7.028362,4.9781 -0.362872,8.2553 0,0 0.09072,-3.4473 0.09072,4.9895 4.348433,0.6567 6.413529,7.0498 0,8.4368 v 8.6182 c 5.168017,-0.2674 5.204274,8.4199 0.09072,8.981 l -0.09072,8.2554 c 8.300677,1.0886 12.365553,5.0011 11.430466,12.2469 l 503.673184,0.5205 c 2.97789,-11.2077 18.83214,-11.4767 19.50078,0.1283 l 95.83607,-0.2566 c -0.50062,-3.5207 1.74866,-10.8336 10.77675,-12.188 l 0.25659,-9.1089 c -3.88357,-0.8149 -3.32403,-8.742 0.25659,-9.1089 l 0.12829,-7.826 c -6.476,-0.5488 -4.04801,-8.2109 0.22452,-8.9486 l -0.0321,-3.6564 c -5.03031,-0.1555 -4.9228,-9.4265 -0.28866,-10.3918 l 0.0962,-7.0562 c -6.07317,-2.0944 -3.33016,-11.39758 -0.25659,-11.22581 l 0.19244,-9.17306 c -11.1508,-1.63549 -10.77187,-10.61195 -10.58379,-15.51297 0.38515,-5.45412 2.27201,-12.64539 11.09697,-14.70041 l -0.80181,-8.85233 c -5.24444,-1.03564 -4.84578,-8.94997 0,-9.9749 l -0.0962,-7.69768 c -3.20612,-0.67361 -6.30936,-6.37187 0.25659,-9.78246 l -0.0642,-4.71483 c -4.21102,-0.19844 -4.60832,-7.67861 -0.0641,-9.14099 l 0.41696,-8.30707 c -3.96422,1.26682 -5.90254,-8.60845 -0.25659,-9.4938 v -8.85233 c -7.10672,-1.77045 -11.23469,-5.73281 -11.9314,-12.22006 l -94.61726,-0.76977 c -1.15081,9.73707 -17.29618,12.27573 -19.78945,-0.0321 z"
     id="path1"
     sodipodi:nodetypes="cccccccccccsccccccccccccccccccccccccccccccccccccccc" />
</svg>
