<?xml version="1.0" encoding="UTF-8" standalone="no"?>
<!-- Created with Inkscape (http://www.inkscape.org/) -->

<svg
   width="210mm"
   height="297mm"
   viewBox="0 0 210 297"
   version="1.1"
   id="svg1"
   inkscape:version="1.4.4 (dcaf3e7, 2026-05-05)"
   sodipodi:docname="face.svg"
   xmlns:inkscape="http://www.inkscape.org/namespaces/inkscape"
   xmlns:sodipodi="http://sodipodi.sourceforge.net/DTD/sodipodi-0.dtd"
   xmlns="http://www.w3.org/2000/svg"
   xmlns:svg="http://www.w3.org/2000/svg">
  <sodipodi:namedview
     id="namedview1"
     pagecolor="#505050"
     bordercolor="#eeeeee"
     borderopacity="1"
     inkscape:showpageshadow="0"
     inkscape:pageopacity="0"
     inkscape:pagecheckerboard="0"
     inkscape:deskcolor="#505050"
     inkscape:document-units="mm"
     inkscape:zoom="15.581903"
     inkscape:cx="337.37855"
     inkscape:cy="381.56442"
     inkscape:window-width="1920"
     inkscape:window-height="991"
     inkscape:window-x="-9"
     inkscape:window-y="-9"
     inkscape:window-maximized="1"
     inkscape:current-layer="svg1" />
  <defs
     id="defs1" />
  <path
     style="display:inline;fill:#4c2632;fill-opacity:1;stroke-width:0.343567;stroke-linecap:round;stroke-linejoin:round;stroke-dashoffset:1.1335;paint-order:markers stroke fill"
     d="m 90.823517,99.286952 c -0.177836,-0.152321 -0.469704,-0.08959 -0.267271,0.605684 0.146575,0.503664 0.674156,0.176164 0.574272,-0.140917 -0.06843,-0.217038 -0.130934,-0.313955 -0.307001,-0.464767 z"
     id="path2"
     sodipodi:nodetypes="ssss" />
  <path
     style="display:inline;fill:#4c2632;fill-opacity:1;stroke-width:0.270552;stroke-linecap:round;stroke-linejoin:round;stroke-dashoffset:1.1335;paint-order:markers stroke fill"
     d="m 93.788056,99.302245 c -0.382104,-0.189839 -0.659398,0.836795 -0.241626,0.854925 0.448097,0.0196 0.454164,-0.707817 0.241626,-0.854925 z"
     id="path3"
     sodipodi:nodetypes="csc" />
  <path
     style="display:inline;fill:#4c2632;fill-opacity:1;stroke-width:0.238125;stroke-linecap:round;stroke-linejoin:round;stroke-dashoffset:1.1335;paint-order:markers stroke fill"
     d="m 92.084413,100.53764 0.120096,0.0987 c -0.01087,0.003 0.02632,0.50543 -0.06856,0.64273 -0.03594,0.052 -0.307125,0.005 -0.307125,0.005 0,0 0.23059,0.12788 0.410429,0.11158 0.106365,-0.01 0.194592,-0.0145 0.333961,-0.0867 -0.133393,-0.0108 -0.256451,0.0243 -0.294471,-0.0257 -0.0555,-0.0732 0.0087,-0.27453 -0.02227,-0.6209 -0.0049,-0.0546 0.142515,-0.0858 0.130726,-0.15071 -0.01042,-0.0573 -0.343833,-0.0559 -0.32312,-0.0145 z"
     id="path4"
     sodipodi:nodetypes="ccscscscssc" />
</svg>
